<mxfile host="65bd71144e">
    <diagram id="g1m3y5f_twhWAAO6JgzJ" name="Page-1">
        <mxGraphModel dx="1853" dy="1298" grid="1" gridSize="10" guides="1" tooltips="1" connect="1" arrows="1" fold="1" page="1" pageScale="1" pageWidth="850" pageHeight="1100" background="#030303" math="0" shadow="0">
            <root>
                <mxCell id="0"/>
                <mxCell id="1" parent="0"/>
                <mxCell id="31" style="edgeStyle=none;html=1;entryX=0.5;entryY=0;entryDx=0;entryDy=0;" edge="1" parent="1" target="30">
                    <mxGeometry relative="1" as="geometry">
                        <mxPoint x="35" y="350" as="sourcePoint"/>
                    </mxGeometry>
                </mxCell>
                <mxCell id="43" style="edgeStyle=none;html=1;exitX=0.5;exitY=1;exitDx=0;exitDy=0;entryX=0.5;entryY=0;entryDx=0;entryDy=0;" edge="1" parent="1" source="27">
                    <mxGeometry relative="1" as="geometry">
                        <mxPoint x="229.99999999999977" y="380" as="targetPoint"/>
                    </mxGeometry>
                </mxCell>
                <mxCell id="41" style="edgeStyle=none;html=1;exitX=0.5;exitY=1;exitDx=0;exitDy=0;entryX=0.5;entryY=0;entryDx=0;entryDy=0;" edge="1" parent="1" source="33">
                    <mxGeometry relative="1" as="geometry">
                        <mxPoint x="-55" y="540" as="targetPoint"/>
                    </mxGeometry>
                </mxCell>
                <mxCell id="114" value="" style="group" vertex="1" connectable="0" parent="1">
                    <mxGeometry x="400" y="110" width="1170" height="730" as="geometry"/>
                </mxCell>
                <mxCell id="6" value="" style="rounded=1;whiteSpace=wrap;html=1;" vertex="1" parent="114">
                    <mxGeometry width="990" height="640" as="geometry"/>
                </mxCell>
                <mxCell id="7" value="&lt;b&gt;&lt;font style=&quot;font-size: 20px;&quot;&gt;Prefilter Plugin&lt;/font&gt;&lt;/b&gt;" style="text;html=1;strokeColor=none;fillColor=none;align=center;verticalAlign=middle;whiteSpace=wrap;rounded=0;" vertex="1" parent="114">
                    <mxGeometry x="55" y="40" width="187.5" height="60" as="geometry"/>
                </mxCell>
                <mxCell id="18" value="FCFS Queue empty?" style="rounded=1;whiteSpace=wrap;html=1;" vertex="1" parent="114">
                    <mxGeometry x="335" y="20" width="140" height="40" as="geometry"/>
                </mxCell>
                <mxCell id="20" value="incoming pod is head" style="rounded=1;whiteSpace=wrap;html=1;" vertex="1" parent="114">
                    <mxGeometry x="465" y="110" width="132.5" height="40" as="geometry"/>
                </mxCell>
                <mxCell id="46" value="push into Queue" style="rounded=1;whiteSpace=wrap;html=1;" vertex="1" parent="114">
                    <mxGeometry x="456.25" y="220" width="150" height="50" as="geometry"/>
                </mxCell>
                <mxCell id="108" value="" style="group" vertex="1" connectable="0" parent="114">
                    <mxGeometry x="55" y="220" width="385" height="380" as="geometry"/>
                </mxCell>
                <mxCell id="58" value="deploy directly" style="rounded=1;whiteSpace=wrap;html=1;" vertex="1" parent="108">
                    <mxGeometry x="180" y="250" width="130" height="50" as="geometry"/>
                </mxCell>
                <mxCell id="59" value="deploy" style="rounded=1;whiteSpace=wrap;html=1;" vertex="1" parent="108">
                    <mxGeometry y="330" width="130" height="50" as="geometry"/>
                </mxCell>
                <mxCell id="60" value="Check which node has least sufficient resource" style="rounded=1;whiteSpace=wrap;html=1;" vertex="1" parent="108">
                    <mxGeometry x="160" width="150" height="50" as="geometry"/>
                </mxCell>
                <mxCell id="61" value="found" style="rounded=1;whiteSpace=wrap;html=1;" vertex="1" parent="108">
                    <mxGeometry x="110" y="90" width="80" height="40" as="geometry"/>
                </mxCell>
                <mxCell id="62" value="not found" style="rounded=1;whiteSpace=wrap;html=1;" vertex="1" parent="108">
                    <mxGeometry x="285" y="90" width="80" height="40" as="geometry"/>
                </mxCell>
                <mxCell id="63" value="Need reconfigure?" style="rounded=1;whiteSpace=wrap;html=1;" vertex="1" parent="108">
                    <mxGeometry x="90" y="160" width="120" height="50" as="geometry"/>
                </mxCell>
                <mxCell id="64" value="push into Queue" style="rounded=1;whiteSpace=wrap;html=1;" vertex="1" parent="108">
                    <mxGeometry x="265" y="160" width="120" height="50" as="geometry"/>
                </mxCell>
                <mxCell id="65" value="label node as target" style="rounded=1;whiteSpace=wrap;html=1;" vertex="1" parent="108">
                    <mxGeometry y="250" width="130" height="50" as="geometry"/>
                </mxCell>
                <mxCell id="68" style="edgeStyle=none;html=1;exitX=0.5;exitY=1;exitDx=0;exitDy=0;entryX=0.5;entryY=0;entryDx=0;entryDy=0;" edge="1" parent="108" source="60" target="61">
                    <mxGeometry relative="1" as="geometry"/>
                </mxCell>
                <mxCell id="69" style="edgeStyle=none;html=1;exitX=0.5;exitY=1;exitDx=0;exitDy=0;entryX=0.5;entryY=0;entryDx=0;entryDy=0;" edge="1" parent="108" source="60" target="62">
                    <mxGeometry relative="1" as="geometry"/>
                </mxCell>
                <mxCell id="70" style="edgeStyle=none;html=1;exitX=0.5;exitY=1;exitDx=0;exitDy=0;entryX=0.5;entryY=0;entryDx=0;entryDy=0;" edge="1" parent="108" source="61" target="63">
                    <mxGeometry relative="1" as="geometry"/>
                </mxCell>
                <mxCell id="73" style="edgeStyle=none;html=1;exitX=0.5;exitY=1;exitDx=0;exitDy=0;entryX=0.5;entryY=0;entryDx=0;entryDy=0;" edge="1" parent="108" source="63" target="58">
                    <mxGeometry relative="1" as="geometry"/>
                </mxCell>
                <mxCell id="97" value="&amp;nbsp;no&amp;nbsp;" style="edgeLabel;html=1;align=center;verticalAlign=middle;resizable=0;points=[];fontSize=12;" vertex="1" connectable="0" parent="73">
                    <mxGeometry x="0.1056" y="2" relative="1" as="geometry">
                        <mxPoint as="offset"/>
                    </mxGeometry>
                </mxCell>
                <mxCell id="71" style="edgeStyle=none;html=1;exitX=0.5;exitY=1;exitDx=0;exitDy=0;entryX=0.5;entryY=0;entryDx=0;entryDy=0;" edge="1" parent="108" source="62" target="64">
                    <mxGeometry relative="1" as="geometry"/>
                </mxCell>
                <mxCell id="72" style="edgeStyle=none;html=1;exitX=0.5;exitY=1;exitDx=0;exitDy=0;entryX=0.448;entryY=0.022;entryDx=0;entryDy=0;entryPerimeter=0;" edge="1" parent="108" source="63" target="65">
                    <mxGeometry relative="1" as="geometry"/>
                </mxCell>
                <mxCell id="96" value="&lt;font style=&quot;font-size: 12px;&quot;&gt;&amp;nbsp;yes&amp;nbsp;&lt;/font&gt;" style="edgeLabel;html=1;align=center;verticalAlign=middle;resizable=0;points=[];fontSize=20;" vertex="1" connectable="0" parent="72">
                    <mxGeometry x="-0.2422" relative="1" as="geometry">
                        <mxPoint x="-5" as="offset"/>
                    </mxGeometry>
                </mxCell>
                <mxCell id="74" style="edgeStyle=none;html=1;exitX=0.5;exitY=1;exitDx=0;exitDy=0;entryX=0.5;entryY=0;entryDx=0;entryDy=0;" edge="1" parent="108" source="65" target="59">
                    <mxGeometry relative="1" as="geometry"/>
                </mxCell>
                <mxCell id="22" style="edgeStyle=none;html=1;exitX=0.5;exitY=1;exitDx=0;exitDy=0;entryX=0.5;entryY=0;entryDx=0;entryDy=0;" edge="1" parent="114" source="18" target="20">
                    <mxGeometry relative="1" as="geometry"/>
                </mxCell>
                <mxCell id="24" value="&amp;nbsp;no&amp;nbsp;" style="edgeLabel;html=1;align=center;verticalAlign=middle;resizable=0;points=[];" vertex="1" connectable="0" parent="22">
                    <mxGeometry x="-0.1674" relative="1" as="geometry">
                        <mxPoint x="5" as="offset"/>
                    </mxGeometry>
                </mxCell>
                <mxCell id="47" style="edgeStyle=none;html=1;exitX=0.5;exitY=1;exitDx=0;exitDy=0;entryX=0.5;entryY=0;entryDx=0;entryDy=0;" edge="1" parent="114" source="20" target="46">
                    <mxGeometry relative="1" as="geometry"/>
                </mxCell>
                <mxCell id="50" value="&amp;nbsp;no&amp;nbsp;" style="edgeLabel;html=1;align=center;verticalAlign=middle;resizable=0;points=[];" vertex="1" connectable="0" parent="47">
                    <mxGeometry x="0.1486" relative="1" as="geometry">
                        <mxPoint x="-2" y="-5" as="offset"/>
                    </mxGeometry>
                </mxCell>
                <mxCell id="21" style="edgeStyle=none;html=1;exitX=0.5;exitY=1;exitDx=0;exitDy=0;entryX=0.5;entryY=0;entryDx=0;entryDy=0;" edge="1" parent="114" source="18" target="60">
                    <mxGeometry relative="1" as="geometry">
                        <mxPoint x="137.49999999999977" y="220" as="targetPoint"/>
                    </mxGeometry>
                </mxCell>
                <mxCell id="23" value="&amp;nbsp;yes&amp;nbsp;" style="edgeLabel;html=1;align=center;verticalAlign=middle;resizable=0;points=[];" vertex="1" connectable="0" parent="21">
                    <mxGeometry x="-0.0817" relative="1" as="geometry">
                        <mxPoint x="-2" y="-2" as="offset"/>
                    </mxGeometry>
                </mxCell>
                <mxCell id="45" style="edgeStyle=none;html=1;exitX=0.5;exitY=1;exitDx=0;exitDy=0;entryX=0.5;entryY=0;entryDx=0;entryDy=0;" edge="1" parent="114" source="20" target="60">
                    <mxGeometry relative="1" as="geometry">
                        <mxPoint x="490" y="310" as="targetPoint"/>
                    </mxGeometry>
                </mxCell>
                <mxCell id="48" value="&amp;nbsp;yes&amp;nbsp;" style="edgeLabel;html=1;align=center;verticalAlign=middle;resizable=0;points=[];" vertex="1" connectable="0" parent="45">
                    <mxGeometry x="0.1539" y="-1" relative="1" as="geometry">
                        <mxPoint x="7" y="-4" as="offset"/>
                    </mxGeometry>
                </mxCell>
                <mxCell id="115" value="&lt;font color=&quot;#fcfcfc&quot;&gt;FCFS Component&lt;/font&gt;" style="rounded=1;whiteSpace=wrap;html=1;labelBackgroundColor=none;fontSize=12;fontColor=#030303;" vertex="1" parent="114">
                    <mxGeometry x="690" y="70" width="240" height="120" as="geometry"/>
                </mxCell>
                <mxCell id="116" value="&lt;font color=&quot;#fcfcfc&quot;&gt;Find Node Component&lt;/font&gt;" style="rounded=1;whiteSpace=wrap;html=1;labelBackgroundColor=none;fontSize=12;fontColor=#030303;" vertex="1" parent="114">
                    <mxGeometry x="690" y="260" width="240" height="120" as="geometry"/>
                </mxCell>
            </root>
        </mxGraphModel>
    </diagram>
</mxfile>